<svg xmlns="http://www.w3.org/2000/svg" viewBox="0 0 204 80.7" enable-background="new 0 0 204 80.7"><path fill-rule="evenodd" clip-rule="evenodd" fill="#1C325F" d="M111.8 68.2c2.3.5 3.9 1.1 4.8 1.9 1.3 1 2 2.4 2 4 0 1.7-.7 3.2-2.2 4.3-1.8 1.4-4.4 2.1-7.8 2.1H96.3v-.6c1.1 0 1.9-.1 2.3-.3.4-.2.7-.5.8-.8.2-.3.2-1.1.2-2.4v-15c0-1.3-.1-2-.2-2.4-.2-.3-.4-.6-.8-.8-.4-.2-1.2-.3-2.3-.3v-.6h11.6c2.8 0 4.7.2 5.9.7 1.2.5 2.1 1.2 2.7 2.1.7.9 1 1.9 1 3s-.4 2.1-1.3 3c-.8.9-2.3 1.6-4.4 2.1m-6.5-.5c1.7 0 2.9-.2 3.7-.5.8-.4 1.4-.9 1.9-1.5.4-.7.6-1.5.6-2.5s-.2-1.9-.6-2.5c-.4-.7-1-1.2-1.8-1.5-.8-.3-2-.5-3.8-.5v9zm0 1.4v8.3c0 .6.2 1.1.5 1.4.3.3.8.5 1.5.5 1 0 1.8-.2 2.6-.6.8-.4 1.4-1 1.9-1.8.4-.8.6-1.6.6-2.6 0-1.1-.3-2-.8-2.9-.5-.9-1.2-1.5-2.2-1.8-.9-.4-2.3-.6-4.1-.5M127.7 78.1c-2 1.7-3.9 2.6-5.5 2.6-1 0-1.7-.3-2.4-.9-.6-.6-.9-1.4-.9-2.3 0-1.2.5-2.3 1.6-3.3s3.5-2.3 7.2-3.9v-1.6c0-1.2-.1-2-.2-2.3-.1-.3-.4-.6-.8-.8-.4-.2-.8-.4-1.3-.4-.8 0-1.4.2-1.9.5-.3.2-.5.4-.5.7 0 .2.2.5.5.9.5.5.7 1 .7 1.4 0 .6-.2 1-.7 1.4-.4.4-1 .6-1.7.6s-1.4-.2-1.9-.6c-.5-.4-.7-.9-.7-1.5 0-.8.3-1.6 1-2.3.7-.8 1.6-1.3 2.8-1.7 1.2-.4 2.5-.6 3.8-.6 1.6 0 2.8.3 3.7 1 .9.6 1.5 1.3 1.8 2.1.2.5.2 1.6.2 3.3v6.2c0 .7 0 1.2.1 1.4.1.2.1.3.3.4.1.1.3.1.4.1.3 0 .6-.2.9-.6l.5.4c-.6.8-1.2 1.5-1.9 1.8-.6.4-1.3.6-2.2.6-1 0-1.7-.2-2.2-.6-.3-.5-.6-1.1-.7-2m0-1.2v-5.3c-1.4.8-2.5 1.7-3.2 2.6-.5.6-.7 1.2-.7 1.9 0 .5.2 1 .6 1.4.3.3.7.5 1.2.5.6-.2 1.3-.5 2.1-1.1"/><path fill="#1C325F" d="M141.8 64.5v2.1c.9-.9 1.7-1.5 2.5-1.9.8-.4 1.6-.6 2.5-.6 1.1 0 2 .3 2.7.9.7.6 1.2 1.3 1.4 2.1.2.7.3 1.9.3 3.7V77c0 1.2.1 2 .3 2.3.2.3.7.5 1.5.6v.6h-8.4v-.6c.6-.1 1.1-.3 1.4-.8.2-.3.3-1 .3-2.1v-7.1c0-1.3-.1-2.1-.2-2.5-.1-.3-.3-.6-.6-.8-.3-.2-.5-.3-.8-.3-1 0-2 .7-2.9 2.1V77c0 1.2.1 2 .3 2.3.2.3.7.5 1.3.6v.6H135v-.6c.7-.1 1.2-.3 1.5-.6.2-.2.3-1 .3-2.2v-9c0-1.2-.1-2-.4-2.3-.2-.3-.7-.5-1.4-.6v-.6h6.8zM160.3 57.3v15.2l3.9-3.6c.8-.7 1.3-1.3 1.5-1.6.2-.3.3-.6.3-1 0-.3-.1-.6-.4-.8-.3-.2-.8-.4-1.5-.4v-.6h7.5v.6c-.7 0-1.3.2-1.9.5-.5.3-1.6 1.2-3.1 2.6l-1.8 1.7 3.9 5.5c1.6 2.2 2.5 3.5 2.8 3.8.4.4.9.6 1.5.6v.6h-8.6v-.6c.4 0 .7-.1.8-.2.2-.1.3-.3.3-.4 0-.3-.3-.7-.7-1.5l-3.3-4.6-1.1 1V77c0 1.2.1 2 .4 2.3.2.3.7.5 1.5.6v.6h-8.6v-.6c.7-.1 1.2-.3 1.5-.6.2-.2.3-1 .3-2.2V60.8c0-1.2-.1-2-.4-2.3-.2-.3-.7-.5-1.4-.6v-.6h6.6zM105.9 30.1v9.5h.7c1.1 0 1.9-.2 2.6-.5.7-.3 1.2-.8 1.7-1.6.5-.7.8-1.7.9-3h.6v11.6h-.6c-.2-2.2-.8-3.6-1.9-4.3-1-.7-2.1-1.1-3.4-1.1h-.7V48c0 1.2.1 1.9.2 2.2.1.3.4.6.8.8.4.2.9.3 1.6.3h.8v.6H96.6v-.6h.8c.7 0 1.3-.1 1.7-.4.3-.2.5-.4.7-.8.1-.3.2-1 .2-2.2V32.7c0-1.2-.1-1.9-.2-2.2-.1-.3-.4-.6-.8-.8-.4-.2-.9-.3-1.6-.3h-.8v-.6H117v6.6h-.7c-.2-1.6-.6-2.7-1.3-3.5-.7-.8-1.7-1.3-3-1.6-.7-.2-2-.3-4-.3h-2.1z"/><path fill-rule="evenodd" clip-rule="evenodd" fill="#1C325F" d="M121.3 28.2c.8 0 1.4.3 2 .8.5.5.8 1.1.8 1.9 0 .7-.3 1.4-.8 1.9s-1.2.8-1.9.8c-.8 0-1.4-.3-1.9-.8s-.8-1.1-.8-1.9c0-.7.3-1.3.8-1.9.4-.5 1.1-.8 1.8-.8m2.5 7.8v12.7c0 1.1.1 1.9.4 2.2.3.3.8.5 1.6.5v.6h-9v-.6c.7 0 1.3-.2 1.6-.6.2-.3.4-1 .4-2.1v-9.3c0-1.1-.1-1.8-.4-2.2-.3-.3-.8-.5-1.6-.5V36h7zM141.9 28.8v18.4c0 1.2 0 2 .1 2.2.1.4.3.7.5.8.3.2.7.3 1.4.3v.6l-7 1.3v-2.5c-.8 1-1.6 1.6-2.3 2-.7.4-1.4.5-2.2.5-2.1 0-3.8-.9-5-2.7-1-1.5-1.5-3.3-1.5-5.4 0-1.7.3-3.3.9-4.6.6-1.4 1.5-2.4 2.5-3.1 1.1-.7 2.2-1 3.5-1 .8 0 1.5.1 2.1.4.6.3 1.3.8 2 1.6v-4.8c0-1.2-.1-2-.2-2.2-.1-.3-.4-.6-.6-.7-.3-.2-.8-.2-1.6-.2V29h7.4zm-5 10.8c-.9-1.6-2-2.4-3.2-2.4-.4 0-.8.1-1.1.3-.4.4-.8 1-1.1 1.9-.3.9-.4 2.2-.4 4.1 0 2 .2 3.5.5 4.5s.7 1.7 1.3 2.1c.3.2.6.3 1.1.3 1 0 2-.8 3-2.4v-8.4zM157.5 43.4h-9.1c.1 2.1.7 3.8 1.8 5 .8.9 1.8 1.4 3 1.4.7 0 1.4-.2 1.9-.6.6-.4 1.2-1.1 1.9-2.1l.6.4c-.9 1.8-1.9 3-3 3.8-1.1.7-2.4 1.1-3.8 1.1-2.5 0-4.3-.9-5.6-2.7-1-1.5-1.5-3.3-1.5-5.5 0-2.7.7-4.8 2.2-6.4 1.5-1.6 3.3-2.4 5.3-2.4 1.7 0 3.1.7 4.4 2 1.1 1.4 1.8 3.4 1.9 6m-4.4-1.2c0-1.8-.1-3.1-.3-3.8-.2-.7-.5-1.2-1-1.6-.2-.2-.6-.3-1-.3-.6 0-1.1.3-1.5.9-.7 1-1.1 2.4-1.1 4.2v.6h4.9z"/><path fill="#1C325F" d="M164.6 28.8v19.9c0 1.1.1 1.9.4 2.2.3.3.8.5 1.6.5v.6h-9v-.6c.7 0 1.3-.2 1.6-.6.2-.3.4-1 .4-2.1V32.1c0-1.1-.1-1.8-.4-2.1-.3-.3-.8-.5-1.6-.5v-.6h7z"/><path fill-rule="evenodd" clip-rule="evenodd" fill="#1C325F" d="M172.2 28.2c.8 0 1.4.3 2 .8.5.5.8 1.1.8 1.9 0 .7-.3 1.4-.8 1.9s-1.2.8-1.9.8c-.8 0-1.4-.3-1.9-.8s-.8-1.1-.8-1.9c0-.7.3-1.3.8-1.9.4-.5 1.1-.8 1.8-.8m2.5 7.8v12.7c0 1.1.1 1.9.4 2.2.3.3.8.5 1.6.5v.6h-9v-.6c.7 0 1.3-.2 1.6-.6.2-.3.4-1 .4-2.1v-9.3c0-1.1-.1-1.8-.4-2.2-.3-.3-.8-.5-1.6-.5V36h7z"/><path fill="#1C325F" d="M183.8 30.1V36h4l1.4 1.7h-5.4v9.9c0 .9 0 1.5.1 1.8.1.3.3.5.5.7.2.2.4.2.6.2.8 0 1.5-.6 2.2-1.7l.5.4c-1 2.2-2.5 3.3-4.7 3.3-1.1 0-2-.3-2.7-.8-.7-.6-1.2-1.2-1.4-1.9-.1-.4-.2-1.4-.2-3.1v-8.6h-2.2v-.6c1.5-1 2.8-2.1 3.8-3.2 1.1-1.1 2-2.4 2.8-3.7h.7zM195 52.6l-5.4-11.8c-.8-1.8-1.4-2.9-1.8-3.3-.4-.4-.8-.7-1.4-.9V36h8.9v.6c-.6 0-1 .1-1.2.3-.2.2-.4.4-.4.7 0 .4.3 1.3.9 2.6l2.9 6.3 1.9-4.8c.7-1.7 1.1-2.9 1.1-3.6 0-.4-.1-.8-.4-1-.3-.3-.8-.4-1.5-.4V36h5.6v.6c-.5.1-1 .3-1.3.6-.3.3-.9 1.5-1.7 3.5l-4.8 11.8c-1.2 3-2.1 4.8-2.7 5.5-.8 1-1.8 1.4-3.1 1.4-1 0-1.8-.3-2.4-.8-.6-.5-.9-1.2-.9-1.9s.2-1.2.6-1.6c.4-.4.9-.6 1.6-.6.6 0 1.1.2 1.4.5.4.4.6.9.6 1.7 0 .4.1.7.2.8.1.1.2.2.4.2.3 0 .6-.2.9-.5.5-.5 1-1.6 1.7-3.3l.3-1.3zM105.9 1.9v9.5h.7c1.1 0 1.9-.2 2.6-.5.7-.3 1.2-.8 1.7-1.6.5-.7.8-1.7.9-3h.6v11.6h-.6c-.2-2.2-.8-3.6-1.9-4.3-1-.7-2.1-1.1-3.4-1.1h-.7v7.1c0 1.2.1 1.9.2 2.2.1.3.4.6.8.8.4.2.9.3 1.6.3h.8v.6H96.6v-.6h.8c.7 0 1.3-.1 1.7-.4.3-.2.5-.4.7-.8.1-.3.2-1 .2-2.2v-15c0-1.2-.1-1.9-.2-2.2-.1-.3-.4-.6-.8-.8-.4-.2-.9-.3-1.6-.3h-.8V.5H117v6.6h-.7c-.2-1.6-.6-2.7-1.3-3.5-.7-.8-1.7-1.3-3-1.6-.7-.2-2-.3-4-.3h-2.1z"/><path fill-rule="evenodd" clip-rule="evenodd" fill="#1C325F" d="M121 0c.8 0 1.4.3 2 .8.5.5.8 1.1.8 1.9 0 .7-.3 1.3-.8 1.9-.5.5-1.2.8-1.9.8-.8 0-1.4-.3-1.9-.8s-.8-1.1-.8-1.9c0-.7.3-1.3.8-1.9.4-.5 1.1-.8 1.8-.8m2.5 7.7v12.7c0 1.1.1 1.8.4 2.2.3.3.8.5 1.6.5v.6h-9v-.6c.7 0 1.3-.2 1.6-.6.2-.3.4-1 .4-2.1v-9.3c0-1.1-.1-1.8-.4-2.2-.3-.3-.8-.5-1.6-.5v-.7h7z"/><path fill="#1C325F" d="M133.5 7.7v3.6c1.1-1.7 2.1-2.7 2.9-3.3.8-.5 1.6-.8 2.4-.8.7 0 1.2.2 1.6.6.4.4.6.9.6 1.7 0 .8-.2 1.4-.6 1.8-.4.4-.8.6-1.4.6-.6 0-1.2-.2-1.6-.6-.5-.4-.7-.6-.8-.7-.1-.1-.3-.1-.4-.1-.3 0-.7.1-1 .4-.5.4-.9.9-1.1 1.7-.4 1.1-.6 2.3-.6 3.7V21c0 .6 0 1.1.1 1.2.1.3.4.5.6.7.3.1.8.2 1.4.3v.6h-9v-.6c.7-.1 1.2-.2 1.5-.6.3-.3.4-1.2.4-2.6v-8.8c0-.9 0-1.5-.1-1.7-.1-.3-.3-.6-.5-.7-.2-.1-.6-.3-1.2-.3v-.8h6.8zM151.5 7.3l.3 5.4h-.6c-.7-1.6-1.5-2.7-2.3-3.3-.8-.6-1.5-.9-2.3-.9-.5 0-.9.2-1.2.5-.3.3-.5.7-.5 1.1 0 .3.1.6.4.9.4.5 1.4 1.3 3.2 2.4 1.7 1.1 2.9 2.1 3.4 2.9.6.8.8 1.7.8 2.6 0 .9-.2 1.8-.7 2.6-.5.9-1.1 1.5-2 2-.8.5-1.8.7-2.8.7-.8 0-1.9-.2-3.2-.7-.4-.1-.6-.2-.7-.2-.4 0-.7.3-1 .9h-.6l-.3-5.7h.6c.5 1.5 1.3 2.6 2.2 3.4.9.7 1.8 1.1 2.7 1.1.6 0 1-.2 1.4-.5.4-.3.6-.8.6-1.2 0-.5-.2-1-.5-1.4-.4-.4-1.2-1-2.4-1.8-1.8-1.2-3-2.1-3.5-2.8-.8-.9-1.2-2-1.2-3.1 0-1.2.4-2.3 1.3-3.3s2.2-1.5 3.9-1.5c.9 0 1.8.2 2.6.6.3.2.6.3.8.3.2 0 .4 0 .5-.1.1-.1.3-.3.6-.7h.5zM160.4 1.9v5.8h4v1.7h-4v9.9c0 .9 0 1.5.1 1.8.1.3.3.5.5.6.2.2.4.2.6.2.8 0 1.5-.6 2.2-1.7l.5.4c-1 2.2-2.5 3.3-4.7 3.3-1.1 0-2-.3-2.7-.8-.7-.6-1.2-1.2-1.4-1.9-.1-.4-.2-1.4-.2-3.1V9.4h-2.2v-.6c1.5-1 2.8-2.1 3.8-3.2 1.1-1.1 2-2.4 2.8-3.7h.7z"/><path fill="#fff" d="M0 8.3h84.3v61.9H0z"/><path fill="#EF4043" d="M0 3.8C0 2 1.6.5 3.5.5h78.2c1.1 0 2.1.5 2.8 1.3C83.9 1 82.9.5 81.7.5H3.5C1.6.5 0 2 0 3.8v9.1-9.1z"/><path fill="#EB2729" d="M84.2 27.8L79.9 36l-11.2.1-4.4 9 11.1.1-3.4 7.1H61.3L53 69.2l-8.8-.1 20.3-41.4h-2.3L57.9 36l-11.1.1-4.4 9h11.3L50 52.3H39.3l-8.2 16.9-8.8-.1 20.3-41.4h-2c-.1 0-.2 0-.3 0l-.2.4c-1.8 2.8-2.2 6.3-5.8 7.7-2.8.5-5.5-.2-7.3-2.3-2.7-4.2 3.7-6.7 1.8-11-1-2.6-3.8-3.4-6.3-3.8-8.1-.2-15.7 1.2-22.5 4.2v8.4c2.5-.9 5.5-1.7 8-2.2 3.9-.5 8-1.7 12.1-.8 1.6.7 3.5 2.1 4 3.8.5 1.7-.3 3.3-1.2 4.7-.8 1.2-.9 3.3-.1 4.6 2 2.9 6.4 2.1 9.4 1.6-1.2 2.6-2.5 5.1-3.9 7.6-.5 1-1.1 1.9-2 2-2.5.2-5.3.5-7.1-1.3-3.1-2.9 1.4-5.6 0-8.9-1-2.2-3.5-2.8-5.8-3.2-4.8-.1-9.5.4-13.4 2.7v7.7c3-.5 6.1-2 9.3-2 2.4.1 6.2.5 6.2 2.9.1 2.5-1.3 4.5-.7 6.9 1.3 3.3 5.2 3.1 8.4 3.3-.7 1.7-1.3 3.4-2.1 5.1-.8 1.7-2.3 3.8-4.4 3.9-2 .2-4.3.1-5.2-1.8-1-2.7.2-5.6-.3-8.4-.2-.8-.9-1.5-1.8-1.7C5.8 57.4 3 58.9 0 60v16.8c0 1 .5 2 1.3 2.6.5.3 1.1.6 1.8.6.1 0 .2 0 .4 0h78.2c.1 0 .3 0 .4 0 .2 0 .4-.1.6-.1.9-.3 1.6-.9 2-1.6.1-.3.2-.5.3-.8.1-.2.1-.5.1-.7v-49h-.9z"/><path fill="#1C325F" d="M85 2.9c0-.2-.1-.3-.2-.5-.1-.1-.1-.2-.2-.3-.1-.1-.2-.2-.2-.4C83.8.9 82.8.4 81.6.4H3.5C1.6.5 0 1.9 0 3.8v9.1C6.7 11 14.1 8.4 21.5 8.6c4.3.1 8.8 1 11 4.9 2 3.4-1.3 6.1-.7 9.5.5 2.2 1.2 3.4 3.2 4.2 1.4.5 3.2.4 5.3.6.1 0 .2 0 .3 0h2l19.6.1h2.3l19.6.1h.9V4c.1-.5.1-.8 0-1.1z"/></svg>